<svg width="252" height="80" viewBox="0 0 252 80" fill="none" xmlns="http://www.w3.org/2000/svg">
<rect x="3.5" y="2.5" width="189" height="76" rx="10.5" stroke="white" stroke-width="3"/>
<rect x="10" y="9" width="41" height="63" rx="4" fill="white"/>
<path d="M15 56.2786V24.7214L21.0424 17H39.9576L46 24.7214V56.2786L39.9576 64H21.0424L15 56.2786ZM36.1746 56.2114L38.8542 52.7871V28.2129L36.1746 24.7886H24.8254L22.1458 28.2129V52.7871L24.8254 56.2114H36.1746Z" fill="#1E1E1E"/>
<rect x="55" y="9" width="41" height="63" rx="4" fill="white"/>
<path d="M60 55.2786V23.7214L66.2544 16H84.8544L91 23.5871V30.7714H83.6035V26.9443L81.0474 23.7886H70.1702L67.3965 27.2129V51.7871L70.1702 55.2114H81.0474L83.6035 52.0557V48.2286H91V55.4129L84.8544 63H66.2544L60 55.2786Z" fill="#1E1E1E"/>
<rect x="100" y="9" width="41" height="63" rx="4" fill="white"/>
<path d="M105.246 59.7271L127.389 37.7714V33.0043L125.359 30.7886H115.395L113.365 33.0043V37.7714H105V30.2514L111.643 23H129.111L135.754 30.2514V40.4571L113.919 61.6743V62.3457H136V70H105.246V59.7271Z" fill="#850922"/>
<rect x="145" y="9" width="41" height="63" rx="4" fill="white"/>
<path d="M168.744 49.2714H150V40.0729L167.247 11H176.286V41.4829H181V49.2714H176.286V58H168.744V49.2714ZM169.077 41.7514V21.2057H168.855L157.376 40.8114V41.7514H169.077Z" fill="#850922"/>
<g clip-path="url(#clip0_498_4292)">
<path d="M250.086 71.8618H198.914C198.409 71.8618 198 71.4526 198 70.948V38.0515C198 37.5469 198.409 37.1377 198.914 37.1377H250.086C250.591 37.1377 251 37.5469 251 38.0515V70.948C251 71.4528 250.591 71.8618 250.086 71.8618Z" fill="#FF4B55"/>
<path d="M217.19 37.1377H198.914C198.409 37.1377 198 37.5468 198 38.0514V70.9479C198 71.4525 198.409 71.8617 198.914 71.8617H217.19V37.1377H217.19Z" fill="#73AF00"/>
<path d="M217.197 62.7173C221.735 62.7173 225.414 59.0384 225.414 54.5003C225.414 49.9621 221.735 46.2832 217.197 46.2832C212.659 46.2832 208.98 49.9621 208.98 54.5003C208.98 59.0384 212.659 62.7173 217.197 62.7173Z" fill="#FFE15A"/>
<path d="M219.938 51.7582V55.4134C219.938 56.925 218.708 58.1548 217.197 58.1548C215.685 58.1548 214.455 56.925 214.455 55.4134V51.7582H219.938ZM220.852 49.9307H213.542C213.037 49.9307 212.628 50.3399 212.628 50.8445V55.4135C212.628 57.9368 214.673 59.9824 217.197 59.9824C219.72 59.9824 221.766 57.9368 221.766 55.4135V50.8445C221.766 50.3399 221.357 49.9307 220.852 49.9307Z" fill="#FF4B55"/>
<path d="M219.938 51.7588V55.4139C219.938 56.9256 218.708 58.1553 217.197 58.1553C215.685 58.1553 214.455 56.9256 214.455 55.4139V51.7588H219.938Z" fill="#F5F5F5"/>
<path d="M213.535 51.3015C213.787 51.3015 213.991 51.097 213.991 50.8446C213.991 50.5923 213.787 50.3877 213.535 50.3877C213.282 50.3877 213.078 50.5923 213.078 50.8446C213.078 51.097 213.282 51.3015 213.535 51.3015Z" fill="#FFE15A"/>
<path d="M220.845 51.3015C221.097 51.3015 221.302 51.097 221.302 50.8446C221.302 50.5923 221.097 50.3877 220.845 50.3877C220.592 50.3877 220.388 50.5923 220.388 50.8446C220.388 51.097 220.592 51.3015 220.845 51.3015Z" fill="#FFE15A"/>
<path d="M213.535 54.9568C213.787 54.9568 213.991 54.7522 213.991 54.4999C213.991 54.2475 213.787 54.043 213.535 54.043C213.282 54.043 213.078 54.2475 213.078 54.4999C213.078 54.7522 213.282 54.9568 213.535 54.9568Z" fill="#FFE15A"/>
<path d="M220.845 54.9568C221.097 54.9568 221.302 54.7522 221.302 54.4999C221.302 54.2475 221.097 54.043 220.845 54.043C220.592 54.043 220.388 54.2475 220.388 54.4999C220.388 54.7522 220.592 54.9568 220.845 54.9568Z" fill="#FFE15A"/>
<path d="M217.19 51.3015C217.442 51.3015 217.647 51.097 217.647 50.8446C217.647 50.5923 217.442 50.3877 217.19 50.3877C216.937 50.3877 216.733 50.5923 216.733 50.8446C216.733 51.097 216.937 51.3015 217.19 51.3015Z" fill="#FFE15A"/>
<path d="M219.933 58.3259C220.185 58.3259 220.39 58.1214 220.39 57.869C220.39 57.6167 220.185 57.4121 219.933 57.4121C219.68 57.4121 219.476 57.6167 219.476 57.869C219.476 58.1214 219.68 58.3259 219.933 58.3259Z" fill="#FFE15A"/>
<path d="M214.5 58.3259C214.753 58.3259 214.957 58.1214 214.957 57.869C214.957 57.6167 214.753 57.4121 214.5 57.4121C214.248 57.4121 214.043 57.6167 214.043 57.869C214.043 58.1214 214.248 58.3259 214.5 58.3259Z" fill="#FFE15A"/>
<path d="M217.787 54.2676V55.0545C217.787 55.38 217.522 55.6447 217.197 55.6447C216.871 55.6447 216.606 55.38 216.606 55.0545V54.2676H217.787Z" fill="#41479B"/>
<path d="M217.787 52.4023V53.1893C217.787 53.5147 217.522 53.7795 217.197 53.7795C216.871 53.7795 216.606 53.5147 216.606 53.1893V52.4023H217.787Z" fill="#41479B"/>
<path d="M217.787 56.1523V56.9393C217.787 57.2647 217.522 57.5295 217.197 57.5295C216.871 57.5295 216.606 57.2647 216.606 56.9393V56.1523H217.787Z" fill="#41479B"/>
<path d="M219.377 54.2676V55.0545C219.377 55.38 219.112 55.6447 218.786 55.6447C218.461 55.6447 218.196 55.38 218.196 55.0545V54.2676H219.377Z" fill="#41479B"/>
<path d="M216.197 54.2676V55.0545C216.197 55.38 215.933 55.6447 215.607 55.6447C215.282 55.6447 215.017 55.38 215.017 55.0545V54.2676H216.197Z" fill="#41479B"/>
</g>
<path d="M219.466 10.7393L223.464 14.7373V24.1508L219.466 28.1488H212.196L210.743 27.0585V35.9995H205V10.7393H219.466ZM217.721 16.5182L216.231 15.028H210.743V23.86H216.231L217.721 22.3699V16.5182Z" fill="white"/>
<path d="M225.283 15.7186V10.7393H244.764V15.7186H237.895V35.9995H232.152V15.7186H225.283Z" fill="white"/>
<defs>
<clipPath id="clip0_498_4292">
<rect x="198" y="40" width="53" height="30" rx="4" fill="white"/>
</clipPath>
</defs>
</svg>
